<svg width="38.853027" height="34.000000" viewBox="0 0 38.853 34" fill="none" xmlns="http://www.w3.org/2000/svg" xmlns:xlink="http://www.w3.org/1999/xlink">
	<desc>
			Created with Pixso.
	</desc>
	<defs/>
	<mask id="mask_23_625" fill="white">
		<path d="M18.5647 33.6357C18.6772 33.751 18.8118 33.8428 18.9602 33.9053C19.1086 33.9678 19.2681 34 19.4292 34C19.5903 34 19.7498 33.9678 19.8982 33.9053C20.0469 33.8428 20.1812 33.751 20.2937 33.6357L35.8262 17.8975C38.7368 14.9492 39.4102 11.0366 38.4333 7.62207L22.2717 23.7778C21.5579 24.4912 20.5901 24.8916 19.5808 24.8916C18.5715 24.8916 17.6038 24.4912 16.8899 23.7778L8.55176 15.4429C8.19824 15.0894 7.91797 14.6699 7.72681 14.2085C7.53564 13.7471 7.43726 13.2524 7.43726 12.7529C7.43726 12.2534 7.53589 11.7588 7.72705 11.2974C7.91846 10.8359 8.19873 10.4165 8.552 10.0635C8.90527 9.70996 9.32495 9.43018 9.78662 9.23877C10.2483 9.04785 10.7432 8.94922 11.2427 8.94922C11.7424 8.94922 12.2373 9.04785 12.699 9.23926C13.1606 9.43018 13.5801 9.71045 13.9333 10.0635L18.9014 15.0288C19.082 15.2085 19.3264 15.3096 19.5811 15.3096C19.8359 15.3096 20.0803 15.2085 20.261 15.0288L33.7126 1.58252C33.7512 1.54541 33.7908 1.50928 33.8306 1.47461C32.3191 0.548828 30.5156 0 28.489 0C22.957 0 20.4185 4.06543 19.4292 4.82471C18.4351 4.06201 15.9128 0 10.3694 0C1.18677 0 -3.47266 11.3066 3.03394 17.8975L18.5647 33.6357Z" clip-rule="evenodd" fill="" fill-opacity="1.000000" fill-rule="evenodd"/>
	</mask>
	<path d="M18.5647 33.6357C18.6772 33.751 18.8118 33.8428 18.9602 33.9053C19.1086 33.9678 19.2681 34 19.4292 34C19.5903 34 19.7498 33.9678 19.8982 33.9053C20.0469 33.8428 20.1812 33.751 20.2937 33.6357L35.8262 17.8975C38.7368 14.9492 39.4102 11.0366 38.4333 7.62207L22.2717 23.7778C21.5579 24.4912 20.5901 24.8916 19.5808 24.8916C18.5715 24.8916 17.6038 24.4912 16.8899 23.7778L8.55176 15.4429C8.19824 15.0894 7.91797 14.6699 7.72681 14.2085C7.53564 13.7471 7.43726 13.2524 7.43726 12.7529C7.43726 12.2534 7.53589 11.7588 7.72705 11.2974C7.91846 10.8359 8.19873 10.4165 8.552 10.0635C8.90527 9.70996 9.32495 9.43018 9.78662 9.23877C10.2483 9.04785 10.7432 8.94922 11.2427 8.94922C11.7424 8.94922 12.2373 9.04785 12.699 9.23926C13.1606 9.43018 13.5801 9.71045 13.9333 10.0635L18.9014 15.0288C19.082 15.2085 19.3264 15.3096 19.5811 15.3096C19.8359 15.3096 20.0803 15.2085 20.261 15.0288L33.7126 1.58252C33.7512 1.54541 33.7908 1.50928 33.8306 1.47461C32.3191 0.548828 30.5156 0 28.489 0C22.957 0 20.4185 4.06543 19.4292 4.82471C18.4351 4.06201 15.9128 0 10.3694 0C1.18677 0 -3.47266 11.3066 3.03394 17.8975L18.5647 33.6357Z" clip-rule="evenodd" fill="#F62A54" fill-opacity="1.000000" fill-rule="evenodd" mask="url(#mask_23_625)"/>
	<path d="M19.4292 4.82471C18.4351 4.06201 15.9128 0 10.3694 0C1.18677 0 -3.47266 11.3066 3.03394 17.8975L18.5647 33.6357C18.6772 33.751 18.8118 33.8428 18.9602 33.9053C19.1086 33.9678 19.2681 34 19.4292 34C19.5903 34 19.7498 33.9678 19.8982 33.9053C20.0469 33.8428 20.1812 33.751 20.2937 33.6357L35.8262 17.8975C38.5372 15.1514 39.3073 11.5686 38.6108 8.33098C38.5595 8.09265 38.5003 7.85619 38.4333 7.62207L37.9227 8.13255L22.2717 23.7778C21.5579 24.4912 20.5901 24.8916 19.5808 24.8916C18.5715 24.8916 17.6038 24.4912 16.8899 23.7778L8.55176 15.4429C8.19824 15.0894 7.91797 14.6699 7.72681 14.2085C7.53564 13.7471 7.43726 13.2524 7.43726 12.7529C7.43726 12.2534 7.53589 11.7588 7.72705 11.2974C7.91846 10.8359 8.19873 10.4165 8.552 10.0635C8.90527 9.70996 9.32495 9.43018 9.78662 9.23877C10.2483 9.04785 10.7432 8.94922 11.2427 8.94922C11.7424 8.94922 12.2373 9.04785 12.699 9.23926C13.1606 9.43018 13.5801 9.71045 13.9333 10.0635L18.9014 15.0288C19.082 15.2085 19.3264 15.3096 19.5811 15.3096C19.8359 15.3096 20.0803 15.2085 20.261 15.0288L33.3678 1.92723L33.7126 1.58252C33.7512 1.54541 33.7908 1.50928 33.8306 1.47461C33.6444 1.36055 33.4537 1.25222 33.2588 1.14993C31.8713 0.421927 30.2659 0 28.489 0C22.957 0 20.4185 4.06543 19.4292 4.82471ZM32.794 1.61457Q32.3116 1.37304 31.8078 1.19055Q30.2506 0.626465 28.489 0.626465Q27.8087 0.626465 27.1437 0.727225Q23.6632 1.25458 20.6008 4.54199Q20.0344 5.1499 19.8108 5.32178L19.4294 5.61426L19.0479 5.32178Q18.8225 5.14893 18.2534 4.53711Q15.2159 1.27172 11.7541 0.732933Q11.07 0.626465 10.3694 0.626465Q7.22331 0.626465 5.01571 2.06583Q2.68282 3.58689 1.39795 6.71533Q0.126118 9.81177 0.683249 12.5339Q1.22307 15.1714 3.47998 17.4575L19.0107 33.1953L19.0132 33.1982Q19.0536 33.2397 19.1005 33.2717Q19.1487 33.3046 19.2036 33.3276Q19.258 33.3507 19.3148 33.3622Q19.3709 33.3735 19.4292 33.3735Q19.4861 33.3735 19.5409 33.3628Q19.5992 33.3513 19.655 33.3276Q19.7085 33.3052 19.7556 33.2733Q19.8038 33.2407 19.8452 33.1982L35.3801 17.4575Q37.3773 15.4344 37.9994 13.0522Q38.5151 11.0774 38.0858 8.8558L22.7146 24.2212Q22.0659 24.8692 21.283 25.1934Q20.4991 25.5181 19.5808 25.5181Q18.6616 25.5181 17.8773 25.1929Q17.0951 24.8687 16.447 24.2212L8.10864 15.8857Q7.7983 15.5755 7.55883 15.2178Q7.31736 14.8572 7.14795 14.4482Q6.97981 14.0426 6.89552 13.6203Q6.81067 13.1951 6.81079 12.7529Q6.81079 12.3137 6.89457 11.8912Q6.97892 11.4657 7.14819 11.0571Q7.31603 10.6522 7.55468 10.2946Q7.79577 9.93323 8.10913 9.62012Q8.41947 9.3099 8.7772 9.0705Q9.13794 8.82908 9.54688 8.65967Q9.95286 8.49172 10.3755 8.4075Q10.8008 8.32275 11.2429 8.32275Q11.6821 8.32275 12.1047 8.40653Q12.5301 8.49088 12.9387 8.66016Q13.3477 8.82956 13.7084 9.07098Q14.0661 9.31039 14.3765 9.62061L19.3442 14.5859Q19.3914 14.6328 19.4482 14.6571Q19.5091 14.6831 19.5811 14.6831Q19.6512 14.6831 19.711 14.6583Q19.7701 14.6337 19.8191 14.585L32.794 1.61457Z" clip-rule="evenodd" fill="#C04963" fill-opacity="1.000000" fill-rule="evenodd"/>
</svg>
