<svg width="105.000000" height="23.135910" viewBox="0 0 105 23.1359" fill="none" xmlns="http://www.w3.org/2000/svg" xmlns:xlink="http://www.w3.org/1999/xlink">
	<desc>
			Created with Pixso.
	</desc>
	<defs/>
	<path id="Vector 1" d="M1 18.54L65.11 18.54L66.22 14.04L67.88 23.04L69.55 0.04L71.22 18.54L104 18.54" stroke="#FFFFFF" stroke-opacity="1.000000" stroke-width="1.000000"/>
	<path id="Item → Link → ABOUT" d="M95.5 15.88C96.22 16.16 97.03 16.3 97.93 16.3C98.82 16.3 99.64 16.16 100.36 15.87C101.09 15.57 101.71 15.16 102.22 14.65C102.74 14.13 103.14 13.52 103.42 12.83C103.69 12.12 103.83 11.37 103.83 10.56C103.83 9.71 103.69 8.94 103.4 8.24Q103.11 7.51 102.65 6.91Q102.44 6.65 102.2 6.41C101.68 5.9 101.05 5.51 100.33 5.23C99.6 4.94 98.8 4.8 97.93 4.8C97.03 4.8 96.22 4.95 95.5 5.24Q94.55 5.62 93.85 6.26Q93.74 6.36 93.64 6.46C93.13 6.97 92.73 7.58 92.46 8.28C92.18 8.98 92.04 9.73 92.04 10.54C92.04 11.38 92.18 12.16 92.46 12.86C92.73 13.56 93.13 14.17 93.64 14.68Q93.68 14.73 93.73 14.77Q94.47 15.48 95.5 15.88ZM80.95 4.96L72.14 4.96L72.14 16.16L74.28 16.16L74.28 6.8L78.81 6.8L78.81 16.16L80.95 16.16L80.95 4.96ZM88.58 5.2C88.09 5.04 87.54 4.96 86.93 4.96L83.56 4.96L83.56 16.16L85.7 16.16L85.7 12.08L86.84 12.08C87.48 12.08 88.05 11.99 88.55 11.82C89.06 11.64 89.49 11.39 89.85 11.08C90.2 10.76 90.46 10.38 90.65 9.93Q90.93 9.26 90.93 8.44Q90.93 7.63 90.65 6.99C90.46 6.56 90.2 6.2 89.85 5.9Q89.33 5.44 88.58 5.2ZM99.38 14.17C98.94 14.35 98.45 14.44 97.93 14.44C97.4 14.44 96.9 14.35 96.44 14.17C95.99 13.99 95.6 13.73 95.27 13.39C94.95 13.05 94.7 12.64 94.52 12.16C94.34 11.68 94.25 11.14 94.25 10.54C94.25 9.94 94.34 9.4 94.52 8.92C94.7 8.44 94.96 8.03 95.29 7.69C95.62 7.35 96.01 7.09 96.46 6.91C96.9 6.73 97.4 6.64 97.93 6.64C98.46 6.64 98.95 6.73 99.4 6.92C99.86 7.11 100.25 7.37 100.57 7.71C100.9 8.04 101.16 8.45 101.34 8.94C101.53 9.42 101.63 9.95 101.63 10.54C101.63 11.14 101.53 11.68 101.34 12.17C101.16 12.65 100.9 13.06 100.57 13.4C100.24 13.73 99.84 13.99 99.38 14.17ZM88.26 9.72C87.93 10.05 87.42 10.22 86.73 10.22L85.7 10.22L85.7 6.8L86.69 6.8Q87.24 6.8 87.62 6.94C87.89 7.03 88.1 7.15 88.26 7.31C88.43 7.46 88.55 7.64 88.63 7.85C88.71 8.05 88.76 8.27 88.76 8.51C88.76 8.99 88.59 9.39 88.26 9.72Z" fill="#D91010" fill-opacity="1.000000" fill-rule="evenodd"/>
	<path id="Item → Link → ABOUT" d="M57.72 15.88C58.44 16.16 59.25 16.3 60.15 16.3C61.04 16.3 61.85 16.16 62.58 15.87C63.3 15.57 63.92 15.16 64.44 14.65C64.96 14.13 65.36 13.52 65.64 12.83C65.91 12.12 66.05 11.37 66.05 10.56C66.05 9.71 65.91 8.94 65.62 8.24Q65.33 7.51 64.87 6.91Q64.66 6.65 64.42 6.41C63.9 5.9 63.27 5.51 62.55 5.23C61.82 4.94 61.02 4.8 60.15 4.8C59.25 4.8 58.44 4.95 57.72 5.24C56.99 5.53 56.37 5.94 55.86 6.46C55.35 6.97 54.95 7.58 54.68 8.28C54.4 8.98 54.26 9.73 54.26 10.54C54.26 11.38 54.4 12.16 54.68 12.86C54.95 13.56 55.35 14.17 55.86 14.68C56.37 15.2 56.99 15.6 57.72 15.88ZM16.84 4.88L15.26 4.88L10.78 16.16L12.91 16.16L13.85 13.68L18.16 13.68L19.1 16.16L21.37 16.16L16.84 4.88ZM4.19 9.34L3.45 9.34L3.45 4.96L1.31 4.96L1.31 16.16L3.45 16.16L3.45 11.2L4.28 11.2L8.06 16.16L10.54 16.16L10.54 15.84L6.04 9.98L9.45 5.28L9.45 4.96L7.18 4.96L4.19 9.34ZM27.83 5.2C27.34 5.04 26.79 4.96 26.18 4.96L22.81 4.96L22.81 16.16L24.95 16.16L24.95 12.08L26.09 12.08C26.73 12.08 27.3 11.99 27.8 11.82C28.31 11.64 28.74 11.39 29.1 11.08C29.45 10.76 29.71 10.38 29.9 9.93C30.09 9.48 30.18 8.99 30.18 8.44Q30.18 7.63 29.9 6.99C29.71 6.56 29.45 6.2 29.1 5.9Q28.58 5.44 27.83 5.2ZM31.56 14.32L30.47 14.32L30.47 18.41L32.42 18.41L32.42 16.16L39.25 16.16L39.25 18.41L41.2 18.41L41.2 14.32L39.81 14.32L39.81 4.96L32.74 4.96L32.74 6.89Q32.74 9.28 32.44 11.1C32.23 12.31 31.94 13.38 31.56 14.32ZM45.12 4.96L42.98 4.96L42.98 16.16L44.34 16.16L50.18 8.88L50.18 16.16L52.34 16.16L52.34 4.96L50.98 4.96L45.12 12.27L45.12 4.96ZM61.6 14.17C61.16 14.35 60.67 14.44 60.15 14.44C59.61 14.44 59.12 14.35 58.66 14.17C58.21 13.99 57.82 13.73 57.49 13.39C57.17 13.05 56.92 12.64 56.74 12.16C56.56 11.68 56.47 11.14 56.47 10.54C56.47 9.94 56.56 9.4 56.74 8.92C56.92 8.44 57.18 8.03 57.51 7.69C57.84 7.35 58.23 7.09 58.68 6.91C59.12 6.73 59.61 6.64 60.15 6.64C60.68 6.64 61.17 6.73 61.62 6.92C62.08 7.11 62.47 7.37 62.79 7.71C63.12 8.04 63.37 8.45 63.56 8.94C63.75 9.42 63.84 9.95 63.84 10.54C63.84 11.14 63.75 11.68 63.56 12.17C63.37 12.65 63.12 13.06 62.79 13.4C62.46 13.73 62.06 13.99 61.6 14.17ZM27.51 9.72C27.18 10.05 26.67 10.22 25.98 10.22L24.95 10.22L24.95 6.8L25.94 6.8C26.31 6.8 26.62 6.84 26.87 6.94C27.14 7.03 27.35 7.15 27.51 7.31C27.68 7.46 27.8 7.64 27.88 7.85C27.96 8.05 28.01 8.27 28.01 8.51C28.01 8.99 27.84 9.39 27.51 9.72ZM34.52 10.94Q34.79 9.12 34.79 6.86L34.79 6.8L37.67 6.8L37.67 14.32L33.65 14.32C34.06 13.28 34.35 12.16 34.52 10.94ZM16 8.04L17.48 11.95L14.51 11.95L16 8.04Z" fill="#FFFFFF" fill-opacity="1.000000" fill-rule="evenodd"/>
</svg>
