<svg width="38" height="38" viewBox="0 0 38 38" fill="none" xmlns="http://www.w3.org/2000/svg">
<rect width="38" height="38" rx="5" fill="#393939"/>
<path fill-rule="evenodd" clip-rule="evenodd" d="M12.6444 14H10.6752C10.1125 14 10 14.255 10 14.5361C10 15.0383 10.6676 17.5288 13.1085 20.8228C14.7357 23.0723 17.0284 24.2917 19.1146 24.2917C20.3664 24.2917 20.5212 24.0208 20.5212 23.5543V21.8542C20.5212 21.3125 20.6398 21.2044 21.0361 21.2044C21.3282 21.2044 21.8289 21.345 22.9972 22.4296C24.3324 23.715 24.5525 24.2917 25.3035 24.2917H27.2727C27.8354 24.2917 28.1167 24.0208 27.9544 23.4864C27.7769 22.9537 27.1394 22.1808 26.2935 21.2647C25.8345 20.7424 25.146 20.1801 24.9374 19.8989C24.6454 19.5373 24.7288 19.3766 24.9374 19.0553C24.9374 19.0553 27.3366 15.8015 27.587 14.6969C27.7121 14.2952 27.587 14 26.9914 14H25.0222C24.5216 14 24.2907 14.255 24.1655 14.5361C24.1655 14.5361 23.1641 16.8861 21.7455 18.4126C21.2865 18.8544 21.0779 18.995 20.8275 18.995C20.7023 18.995 20.5212 18.8544 20.5212 18.4528V14.6969C20.5212 14.2148 20.3759 14 19.9586 14H16.8641C16.5512 14 16.363 14.2237 16.363 14.4358C16.363 14.8927 17.0723 14.9981 17.1454 16.2836V19.0754C17.1454 19.6875 17.0306 19.7985 16.7803 19.7985C16.1127 19.7985 14.4888 17.438 13.5257 14.737C13.337 14.2121 13.1476 14 12.6444 14Z" fill="white"/>
</svg>
