<svg width="38" height="38" viewBox="0 0 38 38" fill="none" xmlns="http://www.w3.org/2000/svg">
<rect width="38" height="38" rx="5" fill="#393939"/>
<path fill-rule="evenodd" clip-rule="evenodd" d="M25.5144 11.8202C23.6974 10.0033 21.2795 9 18.7043 9C13.3967 9 9.08322 13.3182 9.0786 18.6211C9.0786 20.3178 9.52243 21.9729 10.3639 23.4293L9 28.4178L14.1041 27.0817C15.5096 27.8491 17.0908 28.2514 18.7043 28.2514H18.7089C24.0118 28.2514 28.33 23.9332 28.3346 18.6303C28.3346 16.0551 27.3313 13.6372 25.5144 11.8202ZM18.7089 26.624C17.2711 26.624 15.861 26.2356 14.6358 25.5098L14.3445 25.3387L11.3163 26.1339L12.1253 23.1842L11.9358 22.8837C11.136 21.6123 10.7106 20.1375 10.7106 18.6257C10.7106 14.2151 14.3029 10.6274 18.7135 10.6274C20.8495 10.6274 22.8606 11.4596 24.3678 12.9714C25.8796 14.4832 26.7118 16.4944 26.7072 18.6303C26.7026 23.0363 23.1149 26.624 18.7089 26.624ZM23.0964 20.6368C22.856 20.5166 21.6724 19.9341 21.4551 19.8555C21.2332 19.7769 21.076 19.7353 20.9142 19.9757C20.7524 20.2161 20.2947 20.757 20.1514 20.9188C20.0127 21.0807 19.8693 21.0991 19.6289 20.9789C19.3885 20.8587 18.6118 20.6045 17.6964 19.7861C16.9798 19.1481 16.499 18.3622 16.3603 18.1217C16.2216 17.8813 16.3464 17.7519 16.4666 17.6317C16.5729 17.5253 16.707 17.3497 16.8272 17.211C16.9474 17.0723 16.989 16.9705 17.0676 16.8087C17.1462 16.6469 17.1092 16.5082 17.0491 16.388C16.989 16.2678 16.5082 15.0842 16.3094 14.6034C16.1152 14.1365 15.9164 14.1966 15.7685 14.192C15.6298 14.1827 15.468 14.1827 15.3062 14.1827C15.1443 14.1827 14.8854 14.2428 14.6635 14.4832C14.4416 14.7236 13.8221 15.3062 13.8221 16.4897C13.8221 17.6733 14.682 18.8152 14.8022 18.9771C14.9224 19.1389 16.499 21.5661 18.9123 22.6063C19.4856 22.856 19.9341 23.0039 20.2854 23.1149C20.8634 23.2998 21.3858 23.2721 21.8019 23.212C22.2642 23.1426 23.2259 22.6295 23.4247 22.07C23.6235 21.5106 23.6235 21.0252 23.5634 20.9281C23.494 20.8171 23.3368 20.757 23.0964 20.6368Z" fill="white"/>
</svg>
