<svg width="38" height="38" viewBox="0 0 38 38" fill="none" xmlns="http://www.w3.org/2000/svg">
<rect width="38" height="38" rx="5" fill="#393939"/>
<path fill-rule="evenodd" clip-rule="evenodd" d="M10.1745 18.4819C14.7315 16.3473 17.7776 14.9676 19.3128 14.2908C23.6505 12.3644 24.5521 12.026 25.137 12C25.2588 12 25.5513 12.026 25.7462 12.1822C25.8924 12.3124 25.9412 12.4946 25.9655 12.6248C25.9899 12.7549 26.0143 13.0413 25.9899 13.2756C25.7462 15.9047 24.7471 22.3346 24.211 25.2761C23.9917 26.5257 23.553 26.9422 23.1387 26.9942C22.2371 27.0723 21.5304 26.3434 20.6531 25.7447C19.2884 24.7815 18.5086 24.1828 17.1683 23.2457C15.6331 22.1523 16.6322 21.5536 17.5095 20.5904C17.7288 20.3301 21.7497 16.4514 21.8228 16.087C21.8228 16.0349 21.8472 15.8787 21.7497 15.8006C21.6522 15.7225 21.5304 15.7486 21.4329 15.7746C21.2867 15.8006 19.0935 17.3625 14.8289 20.4342C14.1953 20.9028 13.6349 21.1111 13.1231 21.1111C12.5626 21.1111 11.4904 20.7727 10.6862 20.4863C9.71145 20.1479 8.93165 19.9657 9.00475 19.393C9.05349 19.1066 9.44339 18.7943 10.1745 18.4819Z" fill="white"/>
</svg>
