<svg width="128" height="128" viewBox="0 0 128 128" fill="none" xmlns="http://www.w3.org/2000/svg">
<g clip-path="url(#clip0_67_105)">
<path d="M61.9435 12.2744C62.9872 10.5752 65.5963 10.5752 66.64 12.2744L128.216 112.529C129.26 114.228 127.955 116.352 125.868 116.352H2.71556C0.628234 116.352 -0.676344 114.228 0.36732 112.529L61.9435 12.2744Z" fill="#231F20"/>
<path d="M121.289 112.84H87.928C80.4723 94.6873 64.6515 90.5993 57.673 90.8244C56.2323 90.8244 51.595 91.2836 44.5716 93.1205C37.5481 94.9574 16.8829 105.592 7.42822 110.679L50.3794 44.6316L14.3166 105.547C34.8468 87.3937 59.7891 80.1541 69.694 78.8035C95.5187 76.9666 114.851 100.729 121.289 112.84Z" fill="#FCC223"/>
<path d="M63.5245 22.8859L121.198 112.165L79.5974 53.6811C60.0397 63.5139 54.43 75.3368 54.0698 80.0191C51.0443 102.818 70.1877 110.139 80.1377 110.949C57.2303 112.138 47.9488 97.3076 45.2904 92.1751C32.9724 71.3208 52.3139 37.293 63.5245 22.8859Z" fill="white"/>
</g>
<defs>
<clipPath id="clip0_67_105">
<rect width="128" height="128" fill="white"/>
</clipPath>
</defs>
</svg>
