<svg width="167" height="66" viewBox="0 0 167 66" fill="none" xmlns="http://www.w3.org/2000/svg">
<path d="M38.2579 0.787116C38.9025 -0.26237 40.514 -0.262373 41.1586 0.787113L79.1896 62.7068C79.8342 63.7563 79.0285 65.0681 77.7393 65.0681H1.6772C0.388014 65.0681 -0.417728 63.7563 0.226867 62.7068L38.2579 0.787116Z" fill="#231F20"/>
<path d="M74.9118 62.8992H54.3069C49.702 51.6875 39.9307 49.1626 35.6206 49.3016C34.7308 49.3016 31.8667 49.5852 27.5288 50.7198C23.191 51.8543 10.4276 58.4223 4.58813 61.5645L31.1159 20.7717L8.84259 58.3945C21.5225 47.1827 36.9276 42.7114 43.0451 41.8772C58.9951 40.7426 70.9354 55.4191 74.9118 62.8992Z" fill="#FCC223"/>
<path d="M39.2341 7.34106L74.8548 62.4821L49.1612 26.361C37.0819 32.434 33.6171 39.7361 33.3947 42.628C31.5261 56.7094 43.3496 61.2308 49.4949 61.7314C35.3467 62.4655 29.6142 53.3059 27.9723 50.1359C20.3644 37.2557 32.3102 16.2393 39.2341 7.34106Z" fill="white"/>
<path d="M87.05 24.5H100.825V42H97.475V27.375H90.4V42H87.05V24.5ZM107.497 27.375H103.297V24.5H114.997V27.375H110.847V42H107.497V27.375ZM117.494 24.5H127.119V27.375H120.844V42H117.494V24.5ZM130.856 24.5H133.581L138.481 36.3L143.156 24.5H145.856L148.356 42H145.106L143.556 30.85L139.031 42.025H137.781L133.156 30.975L131.756 42H128.606L130.856 24.5ZM154.902 31.35H156.052L160.727 24.5H164.277V25L158.952 32.35L165.977 41.5V42H162.102L156.202 34.25H154.902V42H151.552V24.5H154.902V31.35Z" fill="#272727"/>
</svg>
