<svg width="98" height="81" viewBox="0 0 98 81" fill="none" xmlns="http://www.w3.org/2000/svg">
<path d="M47.1782 1.47064C47.973 0.176456 49.9603 0.176452 50.7551 1.47064L97.6535 77.8275C98.4484 79.1217 97.4548 80.7395 95.865 80.7395H2.06826C0.478483 80.7395 -0.515125 79.1217 0.279763 77.8276L47.1782 1.47064Z" fill="#434343"/>
<path d="M92.3783 78.0649H66.9691C61.2907 64.239 49.241 61.1255 43.926 61.2969C42.8287 61.2969 39.2968 61.6467 33.9475 63.0457C28.5982 64.4448 12.8589 72.5442 5.65796 76.419L38.371 26.115L10.9044 72.5099C26.5408 58.684 45.5377 53.1701 53.0815 52.1414C72.7505 50.7423 87.4748 68.8408 92.3783 78.0649Z" fill="#FCC223"/>
<path d="M48.3821 9.55273L92.3081 77.5505L60.6238 33.0073C45.728 40.4964 41.4554 49.501 41.1811 53.0672C38.8768 70.4319 53.4571 76.0075 61.0352 76.6247C43.5883 77.53 36.5192 66.2347 34.4945 62.3256C25.1126 46.4423 39.8438 20.5257 48.3821 9.55273Z" fill="white"/>
</svg>
