<svg width="133" height="52" viewBox="0 0 133 52" fill="none" xmlns="http://www.w3.org/2000/svg">
<path d="M30.6567 0.629033C31.1732 -0.209676 32.4645 -0.209679 32.981 0.629031L63.4559 50.1129C63.9725 50.9516 63.3268 52 62.2938 52H1.34397C0.310922 52 -0.334732 50.9516 0.181792 50.1129L30.6567 0.629033Z" fill="#231F20"/>
<path d="M60.028 50.2667H43.5169C39.827 41.3067 31.9971 39.2889 28.5433 39.4C27.8303 39.4 25.5353 39.6267 22.0592 40.5333C18.5832 41.44 8.35575 46.6889 3.6765 49.2L24.9336 16.6L7.08567 46.6667C17.2463 37.7067 29.5906 34.1333 34.4927 33.4667C47.2737 32.56 56.8416 44.2889 60.028 50.2667Z" fill="#FCC223"/>
<path d="M31.439 5.86666L59.9824 49.9333L39.3937 21.0667C29.7143 25.92 26.938 31.7556 26.7597 34.0667C25.2624 45.32 34.7367 48.9333 39.6611 49.3333C28.3239 49.92 23.7304 42.6 22.4147 40.0667C16.3183 29.7733 25.8907 12.9778 31.439 5.86666Z" fill="white"/>
<path d="M69.7546 19.5795H80.7927V33.5648H78.1083V21.8771H72.439V33.5648H69.7546V19.5795Z" fill="white"/>
<path d="M86.1388 21.8771H82.7733V19.5795H92.1487V21.8771H88.8232V33.5648H86.1388V21.8771Z" fill="white"/>
<path d="M94.1501 19.5795H101.863V21.8771H96.8345V33.5648H94.1501V19.5795Z" fill="white"/>
<path d="M104.857 19.5795H107.041L110.967 29.0096L114.713 19.5795H116.877L118.88 33.5648H116.276L115.034 24.6542L111.408 33.5848H110.406L106.7 24.754L105.578 33.5648H103.054L104.857 19.5795Z" fill="white"/>
<path d="M124.125 25.0537H125.047L128.793 19.5795H131.638V19.9791L127.371 25.8529L133 33.1652V33.5648H129.895L125.167 27.3713H124.125V33.5648H121.441V19.5795H124.125V25.0537Z" fill="white"/>
</svg>
