<svg width="28" height="29" viewBox="0 0 28 29" fill="none" xmlns="http://www.w3.org/2000/svg">
<g clip-path="url(#clip0_0_263)">
<path d="M14.0109 29.0226C21.7489 29.0226 28.0218 22.5257 28.0218 14.5113C28.0218 6.49693 21.7489 0 14.0109 0C6.2729 0 0 6.49693 0 14.5113C0 22.5257 6.2729 29.0226 14.0109 29.0226Z" fill="url(#paint0_linear_0_263)"/>
<path fill-rule="evenodd" clip-rule="evenodd" d="M6.3289 14.3531C10.41 12.4996 13.1379 11.3016 14.5128 10.7139C18.3975 9.0413 19.205 8.74746 19.7287 8.72485C19.8379 8.72485 20.0998 8.74746 20.2743 8.88308C20.4053 8.99609 20.4489 9.15432 20.4708 9.26733C20.4926 9.38035 20.5144 9.62898 20.4926 9.83241C20.2743 12.1153 19.3796 17.6984 18.8994 20.2525C18.703 21.3375 18.3102 21.6991 17.9392 21.7443C17.1317 21.8121 16.4988 21.1793 15.7132 20.6594C14.491 19.8231 13.7927 19.3032 12.5923 18.4895C11.2174 17.5401 12.1122 17.0203 12.8979 16.1839C13.0943 15.9579 16.6952 12.59 16.7607 12.2736C16.7607 12.2284 16.7825 12.0927 16.6952 12.0249C16.6079 11.9571 16.4988 11.9797 16.4115 12.0023C16.2806 12.0249 14.3164 13.3811 10.4973 16.0483C9.92984 16.4552 9.42789 16.636 8.96959 16.636C8.46764 16.636 7.50739 16.3422 6.7872 16.0935C5.91425 15.7997 5.21588 15.6415 5.28136 15.1442C5.325 14.8955 5.67419 14.6243 6.3289 14.3531Z" fill="white"/>
</g>
<defs>
<linearGradient id="paint0_linear_0_263" x1="0" y1="14.5008" x2="28.0015" y2="14.5008" gradientUnits="userSpaceOnUse">
<stop stop-color="#2AABEE"/>
<stop offset="1" stop-color="#229ED9"/>
</linearGradient>
<clipPath id="clip0_0_263">
<rect width="28" height="29" fill="white"/>
</clipPath>
</defs>
</svg>
