<svg width="29" height="28" viewBox="0 0 29 28" fill="none" xmlns="http://www.w3.org/2000/svg">
<g clip-path="url(#clip0_0_270)">
<path d="M0 13.4167C0 7.09199 0 3.92965 2.035 1.96482C4.06999 0 7.34528 0 13.8958 0H15.1042C21.6547 0 24.93 0 26.965 1.96482C29 3.92965 29 7.09199 29 13.4167V14.5833C29 20.908 29 24.0704 26.965 26.0352C24.93 28 21.6547 28 15.1042 28H13.8958C7.34528 28 4.06999 28 2.035 26.0352C0 24.0704 0 20.908 0 14.5833L0 13.4167Z" fill="#2787F5"/>
<path fill-rule="evenodd" clip-rule="evenodd" d="M7.85465 8.75H5.73959C5.13527 8.75 5.0144 9.02463 5.0144 9.32738C5.0144 9.86819 5.73147 12.5503 8.35315 16.0976C10.1009 18.5201 12.5634 19.8333 14.8042 19.8333C16.1487 19.8333 16.315 19.5417 16.315 19.0393V17.2083C16.315 16.625 16.4423 16.5086 16.868 16.5086C17.1818 16.5086 17.7195 16.66 18.9744 17.828C20.4085 19.2123 20.6449 19.8333 21.4515 19.8333H23.5666C24.171 19.8333 24.4731 19.5417 24.2988 18.9661C24.1081 18.3924 23.4234 17.5601 22.5148 16.5735C22.0218 16.0111 21.2824 15.4055 21.0583 15.1026C20.7446 14.7133 20.8342 14.5402 21.0583 14.1942C21.0583 14.1942 23.6352 10.6901 23.9041 9.50052C24.0385 9.06786 23.9041 8.75 23.2645 8.75H21.1494C20.6116 8.75 20.3637 9.02463 20.2292 9.32738C20.2292 9.32738 19.1537 11.8581 17.6299 13.502C17.1369 13.9778 16.9129 14.1293 16.6439 14.1293C16.5095 14.1293 16.3149 13.9778 16.3149 13.5453V9.50052C16.3149 8.98135 16.1589 8.75 15.7106 8.75H12.3869C12.0509 8.75 11.8487 8.99092 11.8487 9.21929C11.8487 9.71139 12.6106 9.82491 12.6891 11.2092V14.2158C12.6891 14.875 12.5658 14.9945 12.2969 14.9945C11.5799 14.9945 9.83571 12.4525 8.80126 9.54374C8.59856 8.97838 8.3952 8.75 7.85465 8.75Z" fill="white"/>
</g>
<defs>
<clipPath id="clip0_0_270">
<rect width="29" height="28" fill="white"/>
</clipPath>
</defs>
</svg>
