<svg width="27" height="27" viewBox="0 0 27 27" fill="none" xmlns="http://www.w3.org/2000/svg">
<g clip-path="url(#clip0_0_255)">
<path d="M27 20.1483C27 20.2962 26.9954 20.6152 26.9861 20.8649C26.963 21.4705 26.9168 22.2519 26.8428 22.6079C26.7318 23.1442 26.57 23.6481 26.3527 24.0688C26.0985 24.5681 25.7748 25.012 25.3865 25.3957C25.0027 25.7795 24.5589 26.1031 24.0596 26.3574C23.6389 26.5747 23.1303 26.7365 22.5894 26.8474C22.238 26.9168 21.4613 26.9676 20.8603 26.9861C20.6106 26.9954 20.2916 27 20.1437 27H6.84709C6.69914 27 6.38014 26.9954 6.13048 26.9861C5.52483 26.963 4.74349 26.9168 4.3875 26.8428C3.8512 26.7318 3.34726 26.57 2.92654 26.3527C2.42723 26.0985 1.98339 25.7748 1.59966 25.3865C1.21592 25.0027 0.892295 24.5589 0.638014 24.0596C0.420719 23.6389 0.258904 23.1303 0.147945 22.5894C0.0785959 22.238 0.0277397 21.4613 0.00924658 20.8603C0.00462329 20.6152 0 20.2962 0 20.1483V6.85171C0 6.70377 0.00462329 6.38476 0.0138699 6.1351C0.0369863 5.52945 0.0832192 4.74812 0.157192 4.39212C0.268151 3.85582 0.429966 3.35188 0.64726 2.93116C0.901541 2.43185 1.22517 1.98801 1.6089 1.60428C1.99264 1.22055 2.43647 0.896918 2.93579 0.642637C3.35651 0.425342 3.86507 0.263527 4.40599 0.152568C4.75736 0.0832192 5.53408 0.032363 6.1351 0.0138699C6.38476 0.00462329 6.70377 0 6.85171 0H20.1483C20.2962 0 20.6152 0.00462329 20.8649 0.0138699C21.4705 0.0369863 22.2519 0.0832192 22.6079 0.157192C23.1442 0.268151 23.6481 0.429966 24.0688 0.64726C24.5681 0.901541 25.012 1.22517 25.3957 1.61353C25.7795 1.99726 26.1031 2.4411 26.3574 2.94041C26.5747 3.36113 26.7365 3.86969 26.8474 4.41062C26.9168 4.76199 26.9676 5.5387 26.9861 6.13973C26.9954 6.38938 27 6.70839 27 6.85634V20.1483Z" fill="url(#paint0_linear_0_255)"/>
<path fill-rule="evenodd" clip-rule="evenodd" d="M20.6014 6.46327C18.7845 4.64632 16.3665 3.64307 13.7913 3.64307C8.48378 3.64307 4.17026 7.96122 4.16563 13.2641C4.16563 14.9609 4.60947 16.616 5.45091 18.0723L4.08704 23.0609L9.19115 21.7247C10.5966 22.4922 12.1778 22.8944 13.7913 22.8944H13.7959C19.0989 22.8944 23.417 18.5763 23.4216 13.2734C23.4216 10.6982 22.4184 8.28022 20.6014 6.46327ZM13.7959 21.267C12.3581 21.267 10.948 20.8787 9.72282 20.1528L9.43156 19.9818L6.4033 20.777L7.21238 17.8273L7.02282 17.5268C6.22299 16.2554 5.79765 14.7806 5.79765 13.2688C5.79765 8.85814 9.38995 5.27046 13.8006 5.27046C15.9365 5.27046 17.9477 6.10266 19.4548 7.61447C20.9667 9.12629 21.7989 11.1374 21.7942 13.2734C21.7896 17.6794 18.2019 21.267 13.7959 21.267ZM18.1834 15.2799C17.943 15.1597 16.7595 14.5771 16.5422 14.4985C16.3203 14.42 16.1631 14.3783 16.0012 14.6188C15.8394 14.8592 15.3817 15.4001 15.2384 15.5619C15.0997 15.7237 14.9564 15.7422 14.716 15.622C14.4756 15.5018 13.6989 15.2475 12.7834 14.4292C12.0668 13.7912 11.586 13.0052 11.4473 12.7648C11.3086 12.5244 11.4334 12.395 11.5536 12.2747C11.66 12.1684 11.7941 11.9927 11.9143 11.854C12.0345 11.7153 12.0761 11.6136 12.1547 11.4518C12.2333 11.29 12.1963 11.1513 12.1362 11.0311C12.0761 10.9109 11.5953 9.72731 11.3965 9.24649C11.2023 8.77954 11.0035 8.83964 10.8555 8.83502C10.7168 8.82577 10.555 8.82577 10.3932 8.82577C10.2314 8.82577 9.97248 8.88587 9.75056 9.12629C9.52865 9.3667 8.90912 9.94923 8.90912 11.1328C8.90912 12.3164 9.76906 13.4583 9.88926 13.6201C10.0095 13.7819 11.586 16.2092 13.9994 17.2494C14.5727 17.4991 15.0211 17.647 15.3725 17.758C15.9504 17.9429 16.4728 17.9152 16.8889 17.8551C17.3512 17.7857 18.3129 17.2725 18.5117 16.7131C18.7105 16.1537 18.7105 15.6682 18.6504 15.5711C18.581 15.4602 18.4239 15.4001 18.1834 15.2799Z" fill="white"/>
</g>
<defs>
<linearGradient id="paint0_linear_0_255" x1="13.501" y1="27.0021" x2="13.501" y2="0" gradientUnits="userSpaceOnUse">
<stop stop-color="#25CF43"/>
<stop offset="1" stop-color="#61FD7D"/>
</linearGradient>
<clipPath id="clip0_0_255">
<rect width="27" height="27" fill="white"/>
</clipPath>
</defs>
</svg>
