<?xml version="1.0" standalone="no"?>
<!DOCTYPE svg PUBLIC "-//W3C//DTD SVG 20010904//EN"
 "http://www.w3.org/TR/2001/REC-SVG-20010904/DTD/svg10.dtd">
<svg version="1.0" xmlns="http://www.w3.org/2000/svg"
 width="700.000000pt" height="700.000000pt" viewBox="0 0 700.000000 700.000000"
 preserveAspectRatio="xMidYMid meet">
<metadata>
Created by potrace 1.14, written by Peter Selinger 2001-2017
</metadata>
<g transform="translate(0.000000,700.000000) scale(0.100000,-0.100000)"
fill="#000000" stroke="none">
<path d="M2629 6708 c-1 -2 -2 -199 -3 -438 l-1 -435 -460 -1 c-253 0 -482 -4
-510 -8 -213 -33 -412 -211 -466 -416 -6 -25 -13 -56 -16 -70 -3 -14 -6 -341
-6 -727 -1 -627 -2 -703 -16 -709 -9 -3 -99 -35 -199 -70 -228 -79 -245 -87
-287 -136 -40 -48 -64 -111 -71 -193 -5 -54 2 -89 75 -345 44 -157 87 -307 95
-335 8 -27 53 -185 100 -350 46 -165 117 -412 156 -550 40 -137 78 -275 86
-305 8 -30 22 -79 31 -109 l15 -53 97 6 c94 6 130 10 181 22 14 3 36 8 50 11
46 8 199 62 252 89 169 84 362 222 508 361 l95 91 80 -79 c268 -263 589 -440
881 -484 98 -15 345 -15 424 0 63 12 183 45 236 65 200 74 445 238 630 420
l80 80 40 -41 c51 -54 227 -205 290 -249 274 -192 516 -281 792 -289 34 -1 62
0 62 2 0 4 133 474 162 572 6 22 12 45 14 50 3 16 134 477 145 510 63 197 232
824 236 876 10 127 -41 229 -142 281 -22 11 -127 51 -235 88 l-195 68 -1 708
c-1 756 -2 765 -52 874 -51 112 -168 233 -277 285 -113 55 -141 58 -655 59
l-475 1 -1 430 c-1 237 -2 433 -3 438 -1 6 -1739 11 -1742 5z m2621 -2033 c0
-316 -1 -575 -3 -575 -1 0 -76 24 -167 54 -91 30 -307 100 -480 156 -173 56
-346 112 -385 125 -320 107 -703 228 -717 227 -14 0 -296 -90 -433 -137 -36
-12 -610 -199 -910 -295 -66 -22 -183 -60 -259 -85 -77 -25 -141 -45 -143 -45
-2 0 -3 259 -3 575 l0 575 1750 0 1750 0 0 -575z m-1336 -756 c221 -72 410
-134 421 -139 11 -5 261 -88 555 -184 294 -96 605 -198 690 -226 86 -28 161
-54 168 -59 9 -6 9 -18 -2 -57 -15 -49 -182 -653 -196 -709 -4 -16 -27 -97
-50 -180 -23 -82 -45 -162 -47 -178 -3 -15 -9 -30 -14 -33 -15 -9 -149 87
-223 161 -74 74 -90 92 -195 215 -35 41 -68 80 -75 85 -6 6 -40 44 -76 85 -36
41 -69 80 -75 86 -5 6 -37 41 -70 78 l-59 67 -26 -29 c-14 -16 -44 -51 -67
-78 -225 -265 -493 -549 -587 -622 -76 -59 -177 -108 -273 -133 -88 -23 -262
-32 -339 -18 -27 5 -61 12 -75 14 -124 22 -262 106 -389 235 -134 136 -417
445 -551 603 l-24 29 -30 -34 c-17 -18 -71 -80 -120 -138 -50 -58 -92 -107
-95 -110 -3 -3 -36 -41 -75 -85 -111 -127 -162 -181 -226 -241 -48 -44 -197
-151 -218 -156 -9 -2 -23 33 -46 112 -39 136 -129 445 -222 760 -36 124 -66
236 -67 249 -1 26 -52 8 874 310 239 78 487 159 550 180 63 21 243 80 400 131
157 51 314 103 350 116 36 12 74 23 84 23 11 1 200 -58 420 -130z"/>
<path d="M2242 1194 c-209 -138 -452 -234 -712 -284 -150 -29 -244 -34 -613
-34 -282 -1 -328 -3 -331 -16 -2 -8 -3 -139 -2 -290 l1 -275 375 0 c367 0 509
7 616 30 12 3 39 7 60 11 159 25 449 122 614 206 41 21 78 38 82 38 4 0 49
-20 100 -44 130 -61 149 -69 268 -109 294 -99 537 -137 850 -131 102 1 194 5
206 7 12 3 45 8 75 12 82 10 107 14 196 35 46 11 93 22 105 24 84 16 296 95
439 163 l96 45 96 -46 c229 -110 509 -194 737 -221 30 -4 66 -9 80 -12 14 -3
208 -7 431 -9 l405 -4 0 290 c0 160 -2 291 -5 291 -3 1 -163 2 -356 4 -322 2
-418 6 -500 20 -16 3 -46 8 -65 11 -240 39 -519 149 -735 289 -71 47 -91 56
-104 47 -9 -7 -63 -40 -121 -75 -170 -102 -317 -163 -510 -212 -110 -27 -131
-31 -300 -54 -78 -11 -355 -11 -437 0 -32 4 -80 10 -108 14 -252 32 -569 153
-777 296 -31 21 -60 39 -65 38 -4 0 -45 -25 -91 -55z"/>
</g>
</svg>
